<svg xmlns="http://www.w3.org/2000/svg" xmlns:xlink="http://www.w3.org/1999/xlink" width="1500" height="500"><rect id="backgroundrect" width="100%" height="100%" x="0" y="0" fill="none" stroke="none"/>
 <defs>
  <clipPath id="clip0">
   <rect width="1500" height="500" fill="#fff" id="rect41"/>
  </clipPath>
  <clipPath id="clip1">
   <rect x="1261" y="188" width="50" height="50" fill="#fff" id="rect44"/>
  </clipPath>
  <clipPath id="spec-left">
   <path id="path5554" fill="#333" d="m85,860c-10,1 -25,1 -28,13c-3,15 -3,32 6,45c7,11 23,9 35,9c19,-1 35,-16 40,-34c2,-8 4,-14 1,-19c-6,-10 -20,-12 -31,-13l-23,-1z"/>
  </clipPath>
  <clipPath id="spec-right">
   <path id="path5557" fill="#333" d="m215,860c10,1 24,1 28,13c3,15 3,32 -6,45c-7,11 -23,9 -35,9c-19,-1 -35,-16 -40,-34c-2,-8 -4,-14 -1,-19c6,-10 20,-12 31,-13l23,-1z"/>
  </clipPath>
  <style type="text/css">svg { --fur: #662900; --ear: #e4b89b; --cap-strap--large: #f00; --cap-strap--small: #900; --cap: #0d0d0d; --dots: rgba(242,242,242,0.6); --frame: #000; --shine: rgba(242,242,242,0.35); --lens: #595959; --code-one: rgba(128,230,25,0.5); --code-two: rgba(229,230,25,0.5); --code-three: rgba(230,25,128,0.5); --code-four: rgba(25,195,230,0.5); } .code-block { -webkit-animation: read 1s infinite linear; animation: read 1s infinite linear; } .code-block rect { fill: var(--code-one); } .code-block rect:nth-of-type(5) { fill: var(--code-four); } .code-block rect:nth-of-type(8), .code-block rect:nth-of-type(9) { fill: var(--code-two); } .code-block rect:nth-of-type(12) { fill: var(--code-three); } .bear__fur, .bear__outer-ear { fill: var(--fur); } .bear__inner-ear, .bear__muzzle { fill: var(--ear); } .bear__cap-strap { fill: var(--cap-strap--large); } .bear__small-cap-strap { fill: var(--cap-strap--small); } .bear__cap { fill: var(--cap); } .lens { fill: var(--lens); } .lens__shine { fill: var(--shine); } .shades-dot { fill: var(--dots); } .bear__nose, .shades-frame { fill: var(--frame); } @-webkit-keyframes read { to { -webkit-transform: translate(0, -283.5px); transform: translate(0, -283.5px); } } @keyframes read { to { -webkit-transform: translate(0, -283.5px); transform: translate(0, -283.5px); } }</style>
  <g id="code-block" class="code-block">
   <rect id="rect5505" width="74" height="7.5" x="60" y="862"/>
   <rect id="rect5507" width="28" height="7.5" x="96" y="874"/>
   <rect id="rect5509" y="886" x="60" height="7.5" width="54"/>
   <rect id="rect5511" width="74" height="7.5" x="60" y="897"/>
   <rect id="rect5513" y="909" x="78" height="7.5" width="56"/>
   <rect id="rect5515" width="51" height="7.5" x="83" y="921"/>
   <rect id="rect5517" y="932" x="73" height="7.5" width="51"/>
   <rect id="rect5519" width="62" height="7.5" x="72" y="944"/>
   <rect id="rect5521" y="956" x="60" height="7.5" width="74"/>
   <rect id="rect5523" width="84" height="7.5" x="50" y="967"/>
   <rect id="rect5525" y="979" x="60" height="7.5" width="64"/>
   <rect id="rect5527" width="74" height="7.5" x="60" y="991"/>
   <rect id="rect5529" y="1003" x="93" height="7.5" width="41"/>
   <rect id="rect5531" width="58" height="7.5" x="66" y="1014"/>
   <rect id="rect5533" y="1026" x="56" height="7.5" width="58"/>
   <rect id="rect5535" width="74" height="7.5" x="50" y="1038"/>
   <rect id="rect5537" y="1049" x="88" height="7.5" width="46"/>
   <rect id="rect5539" width="19" height="7.5" x="105" y="1061"/>
   <rect id="rect5541" y="1073" x="96" height="7.5" width="38"/>
   <rect id="rect5543" width="51" height="7.5" x="73" y="1084"/>
   <rect id="rect5545" width="26" height="7.5" x="88" y="1096"/>
   <rect id="rect5547" y="1108" x="68" height="7.5" width="56"/>
   <rect id="rect5549" width="24" height="7.5" x="100" y="1120"/>
   <rect id="rect5551" y="1131" x="50" height="7.5" width="74"/>
  </g>
  <pattern id="pattern0" patternContentUnits="objectBoundingBox" width="1" height="1">
   <use xlink:href="#image0" transform="scale(0.004999999888241291) " id="use38"/>
  </pattern>
 </defs>
 <g style="">
  <title>background</title>
  <rect fill="none" id="canvas_background" height="602" width="802" y="-1" x="-1"/>
 </g>
 <g style="" class="currentLayer">
  <title>Layer 1</title>
  <g id="svg_1" clip-path="url(#clip0)" class="">
   <rect id="svg_2" width="1500" height="500" fill="#1E1E1E"/>
   <rect id="svg_3" width="1500" height="500" fill="#1E1E1E"/>
   <rect id="svg_4" x="286" y="622" width="1614.300048828125" height="759.9000244140625" transform="rotate(-37 286.00000000000006,622) " fill="#DF2525"/>
   <circle id="svg_5" cx="750" cy="225" r="183" fill="#fff"/>
   <path id="svg_6" d="m600,435l3,9l0,1a27,27 0 0 1 0,2l1,0a24,24 0 0 1 0,-3l3,-9l5,0l0,26l-4,0l0,-17a29,29 0 0 1 1,-6l-1,0l0,2a30,30 0 0 1 -1,3l-2,7l-3,0l-2,-7a51,51 0 0 1 -2,-5a204,204 0 0 1 1,6l0,17l-5,0l0,-26l6,0zm16,20l0,-2l2,-2l2,-1l4,-1l5,0l0,-2l-2,-2l-2,-1l-3,1l-1,1l-5,0l1,-2l2,-2l3,-1l6,0l3,2l1,2l1,2l0,14l-4,0l0,-4l-1,0c0,1 0,2 -2,3l-4,1l-4,-1c-2,-1 -2,-3 -2,-5zm4,0l1,2l3,1l3,-1l2,-3l0,-2l-5,0l-3,1l-1,2zm23,-20l0,14l3,0l5,-8l5,0l-6,10l6,10l-5,0l-5,-8l-3,0l0,8l-5,0l0,-26l5,0zm17,22l7,0l0,-12l-6,0l0,-4l11,0l0,16l5,0l0,4l-17,0l0,-4zm6,-21l1,-2l2,-1l2,1l1,2l-1,2l-4,0l-1,-2zm15,5l5,0l0,4c0,-2 1,-3 2,-3l3,-1l5,2l2,5l0,13l-5,0l0,-12l-1,-3l-2,-1l-3,1l-1,3l0,12l-5,0l0,-20zm22,8l0,-4l1,-2l3,-2l2,0l4,1l2,3l0,-4l4,0l0,22l-2,2l-2,2l-9,0l0,-4l5,0l3,-1l1,-2l0,-4l-2,3l-4,1l-2,-1l-3,-1l-1,-3l0,-6zm4,3l1,3l3,1l3,-1l1,-3l0,-3l-1,-3l-3,-1l-3,1l-1,3l0,3zm38,3l1,-2l1,-2l3,-1l3,-1l5,0l0,-2l-1,-2l-3,-1l-2,1l-2,1l-4,0l1,-2l2,-2l2,-1l7,0l2,2l2,2l1,2l0,14l-5,0l0,-4l-2,3l-4,1l-5,-1l-2,-5zm5,0l1,2l2,1l4,-1l1,-3l0,-2l-5,0l-2,1l-1,2zm16,-14l4,0l1,13a22,22 0 0 1 0,3l0,2l1,0l0,-2a221,221 0 0 0 0,-3l2,-13l4,0l2,13a21,21 0 0 1 0,3l0,2l1,0a44,44 0 0 1 0,-5l1,-13l4,0l-3,20l-5,0l-2,-13a16,16 0 0 1 0,-2l0,-2a35,35 0 0 1 0,4l-2,13l-6,0l-2,-20zm23,8l1,-4l1,-2l3,-2l7,0a7,7 0 0 1 5,8l0,3l-13,0l0,2l1,3l4,1l2,-1l2,-1l4,0a6,6 0 0 1 -3,4a10,10 0 0 1 -5,1l-4,0l-3,-2l-1,-2l-1,-3l0,-5zm9,-5l-4,2l-1,3l9,0l-1,-3l-3,-2zm12,12l5,0l1,1l2,1l2,0l2,-1l1,-2c0,-1 -1,-2 -3,-2l-3,0l-5,-2l-1,-4l2,-5l5,-1l2,0l5,1l3,4l-5,0l-1,-1l-2,-1l-2,0l-2,1l-1,2c0,1 1,2 3,2l3,0l5,2l2,4l-2,5l-6,1l-2,0l-5,-1l-3,-4zm31,5l-4,0l-3,-2l-1,-2l-1,-3l0,-5l1,-4l1,-2l3,-2l7,0a7,7 0 0 1 5,4l0,12a7,7 0 0 1 -5,4l-3,0zm-4,-7l1,2l3,1l3,-1l1,-2l0,-5l-1,-3l-3,-1l-3,1l-1,3l0,5zm20,-13l0,3l1,-2l3,-1l2,1l1,2l1,-2l2,-1l3,1l1,4l0,15l-4,0l0,-15l-1,-2l-2,2l0,15l-3,0l0,-15l-2,-2l-2,2l0,15l-4,0l0,-20l4,0zm18,8l1,-4l2,-2l2,-2l7,0a7,7 0 0 1 5,8l0,3l-12,0l0,2l1,3l3,1l2,-1l2,-1l4,0a6,6 0 0 1 -3,4a10,10 0 0 1 -5,1l-4,0l-2,-2l-2,-2l-1,-3l0,-5zm9,-5l-3,2l-1,3l8,0l-1,-3l-3,-2zm39,-3l0,-6l5,0l0,6l7,0l0,4l-7,0l0,11l2,1l5,0l0,4l-5,0l-5,-2l-2,-4l0,-10l-5,0l0,-4l5,0zm17,-6l5,0l0,6a20,20 0 0 1 0,4c0,-2 1,-3 2,-3l3,-1c2,0 4,0 5,2l2,5l0,13l-5,0l0,-12l-1,-3l-2,-1l-3,1l-1,3l0,12l-5,0l0,-26zm22,22l8,0l0,-12l-7,0l0,-4l11,0l0,16l6,0l0,4l-18,0l0,-4zm6,-21l1,-2l2,-1l1,0l2,1l0,4l-5,0l-1,-2zm16,5l4,0l0,4c0,-2 1,-3 2,-3l3,-1l5,2l2,5l0,13l-5,0l0,-12l-1,-3l-2,-1l-3,1l-1,3l0,12l-4,0l0,-20zm21,8l0,-4l2,-2l2,-2l3,0l3,1l2,3l0,-4l5,0l0,19l-1,3l-2,2l-2,2l-9,0l0,-4l5,0l3,-1l1,-2l0,-4l-2,3l-3,1l-3,-1l-2,-1l-2,-3l0,-6zm4,3l1,3l3,1l3,-1l1,-3l0,-3l-1,-3l-3,-1l-3,1l-1,3l0,3zm17,4l5,0l1,1l2,1l2,0l2,-1l1,-2c0,-1 -1,-2 -3,-2l-3,0l-5,-2l-1,-4c0,-2 0,-4 2,-5l5,-1l2,0l5,1l2,4l-4,0l-1,-1l-2,-1l-2,0l-2,1l-1,2c0,1 1,2 3,2l3,0l5,2l2,4l-2,5l-6,1l-2,0l-5,-1l-3,-4zm43,-9l0,-4l6,0l0,-2l0,-3l1,-1l2,-2l9,0l0,4l-6,0l-1,1l-1,1l0,2l8,0l0,4l-8,0l0,14l-4,0l0,-14l-6,0zm31,14l-4,0l-2,-2l-2,-2l-1,-3l0,-5l1,-4l2,-2l2,-2l7,0a7,7 0 0 1 5,4l0,12l-2,2l-3,2l-3,0zm-4,-7l1,2l3,1l3,-1l1,-2l0,-5l-1,-3l-3,-1l-3,1l-1,3l0,5zm22,-13l0,4l1,0l1,-3l4,-1l5,2l2,5l0,2l-5,0l0,-1l-1,-3l-3,-1l-3,1l-1,3l0,12l-4,0l0,-20l4,0zm37,14l1,-2l2,-2l2,-1l3,-1l5,0l0,-2l-1,-2l-3,-1l-2,1l-2,1l-4,0a6,6 0 0 1 3,-4l2,-1l7,0l2,2l2,2l1,2l0,14l-5,0l0,-4l-2,3l-4,1l-5,-1l-2,-5zm5,0l1,2l2,1l4,-1l1,-3l0,-2l-5,0l-2,1l-1,2zm16,-14l4,0l1,13l0,1a34,34 0 0 1 1,4l0,-2a213,213 0 0 0 1,-3l1,-13l4,0l2,13l0,5l1,0a53,53 0 0 1 0,-4l0,-1l2,-13l3,0l-2,20l-6,0l-1,-13l-1,-1l0,-1l0,-2l0,4l-2,13l-5,0l-3,-20zm23,8l1,-4a7,7 0 0 1 4,-4l7,0a7,7 0 0 1 5,4l0,7l-13,0l0,2l2,3l3,1l2,-1l2,-1l4,0a7,7 0 0 1 -3,4a10,10 0 0 1 -5,1l-4,0l-3,-2l-1,-2l-1,-3l0,-5zm9,-5c-2,0 -3,1 -3,2c-1,0 -2,1 -2,3l9,0l-1,-3l-3,-2zm13,12l4,0l1,1l3,1l1,0l3,-1l0,-2c0,-1 -1,-2 -3,-2l-2,0l-5,-2l-2,-4l2,-5l6,-1l1,0l5,1l3,4l-5,0l-1,-1l-2,-1l-1,0l-3,1l-1,2c0,1 1,2 3,2l3,0l5,2l2,4l-2,5l-6,1l-1,0l-6,-1l-2,-4zm30,5l-4,0l-2,-2l-2,-2l-1,-3l0,-5l1,-4l2,-2l2,-2l7,0a7,7 0 0 1 5,4l0,12a7,7 0 0 1 -5,4l-3,0zm-4,-7l1,2l3,1l3,-1l1,-2l0,-5l-1,-3l-3,-1l-3,1l-1,3l0,5zm20,-13l0,3l1,-2l3,-1l2,1l1,2l1,-2l2,-1l3,1l2,4l0,15l-4,0l0,-15l-2,-2l-2,2l0,15l-3,0l0,-15l-2,-2l-2,2l0,15l-4,0l0,-20l4,0zm18,8l1,-4l2,-2l2,-2l8,0a7,7 0 0 1 4,4l1,4l0,3l-13,0l0,2l1,3l3,1l3,-1l1,-1l4,0l-1,2l-1,2a10,10 0 0 1 -6,1l-3,0l-3,-2l-2,-2l-1,-3l0,-5zm9,-5l-3,2l-1,3l8,0l-1,-3l-3,-2zm35,-3l4,0l0,4l1,0l1,-3l4,-1l3,0l2,2l1,2l1,4l0,5l-1,3l-1,2l-2,2l-3,0l-4,-1l-1,-2l-1,0l0,1a18,18 0 0 1 1,2l0,6l-5,0l0,-26zm5,8l0,5l1,2l2,1l3,-1l1,-3l0,-4l-1,-3l-3,-1l-2,1l-1,3zm16,0l1,-4a7,7 0 0 1 4,-4l7,0a7,7 0 0 1 5,4l0,7l-12,0l0,2l1,3l3,1l2,-1l2,-1l4,0a7,7 0 0 1 -3,4a10,10 0 0 1 -5,1l-4,0l-2,-2l-2,-2l-1,-3l0,-5zm9,-5l-3,2l-1,3l8,0l-1,-3l-3,-2zm21,17l-3,0l-3,-2l-2,-2l0,-8l0,-4l2,-2l3,-2l7,0l3,2l1,2l1,4l0,5l-1,3a7,7 0 0 1 -4,4l-4,0zm-4,-7l1,2l3,1l3,-1l1,-2l0,-5l-1,-3l-3,-1l-3,1l-1,3l0,5zm18,-13l4,0l0,4l2,-3l4,-1l3,0l2,2l1,2l1,4l0,5l-1,3l-1,2l-2,2l-3,0l-4,-1l-2,-2a11,11 0 0 1 0,2l0,7l-4,0l0,-26zm4,8l0,5l1,2l3,1l3,-1l1,-3l0,-4l-1,-3l-3,-1l-3,1l-1,3zm16,-10l0,-4l11,0l0,21l2,1l6,0l0,4l-9,0a6,6 0 0 1 -3,-4l-1,-3l0,-15l-6,0zm23,10l0,-4l2,-2l3,-2l7,0a7,7 0 0 1 4,4l1,4l0,3l-13,0l0,2l1,3l3,1l3,-1l1,-1l5,0l-2,2l-1,2a10,10 0 0 1 -6,1l-3,0l-3,-2l-2,-2l0,-8zm8,-5l-3,2l-1,3l8,0l-1,-3l-3,-2zm19,-9l5,0l0,5l-1,13l-3,0l-1,-13l0,-5zm0,24l0,-2l2,-1l1,0l2,1l1,2l-1,2l-5,0l0,-2z" fill="#fff"/>
   <path id="svg_7" d="m1285,268l4,0l0,11l-4,0l0,-11zm10,0l4,0l0,11l-4,0l0,-11zm-21,-10l-9,9l0,32l10,0l0,9l9,-9l7,0l16,-16l0,-25l-33,0zm30,23l-7,7l-7,0l-7,7l0,-7l-8,0l0,-26l29,0l0,19z" fill="#fff"/>
   <path id="svg_8" d="m1329,302l0,-5l5,0l3,-1l1,-2l0,-14l-8,0l0,-4l13,0l0,18a8,8 0 0 1 -3,5l-2,2l-4,1l-5,0zm8,-32l1,-1l2,-1l2,1l1,1l-1,2l-2,1l-2,-1l-1,-2zm13,0l5,0l0,6a24,24 0 0 1 0,2l0,1l-1,0l1,0l2,-3l3,-1l5,2l2,6l0,13l-5,0l0,-13l-1,-3l-3,-1l-2,1l-1,3l0,13l-5,0l0,-26zm30,26l-3,-1l-3,-1l-2,-2l-1,-3l5,0l1,2l3,1l3,-1l1,-3l-1,-3l-3,-2l-3,0l0,-4l4,-4a26,26 0 0 1 2,-2l-1,0l-10,0l0,-3l16,0l0,4l-6,5a10,10 0 0 1 -1,1l3,0l3,2l1,3l1,3l-1,3a7,7 0 0 1 -4,4l-4,1zm12,-20l5,0l4,10a10,10 0 0 1 0,3l1,1l0,-1a56,56 0 0 1 1,-3l3,-10l5,0l-9,26l-5,0l3,-8l-8,-18zm22,0l5,0l3,10l1,2a14,14 0 0 1 0,2l1,0a22,22 0 0 1 0,-4l4,-10l5,0l-10,26l-4,0l2,-8l-7,-18z" fill="#fff"/>
   <path id="svg_9" d="m1286,328a180,180 0 0 0 -16,1l-5,3l-3,5l-1,6a170,170 0 0 0 1,26l3,5l5,3l6,1a174,174 0 0 0 26,-1l5,-3l3,-5l1,-6a179,179 0 0 0 -1,-26l-3,-5l-5,-3l-6,-1l-10,0zm0,5a178,178 0 0 1 15,1l3,1l1,3l1,5l1,10l-1,10l-1,5l-1,3l-3,1l-5,1a176,176 0 0 1 -25,-1l-3,-1l-2,-3l0,-5l-1,-10l1,-10l0,-5l2,-3l3,-2l5,0l10,-1l0,1zm0,7a13,13 0 1 0 0,26a13,13 0 0 0 0,-26zm0,21a8,8 0 1 1 0,-16a8,8 0 0 1 0,16zm16,-21a3,3 0 1 1 -6,0a3,3 0 0 1 6,0z" fill="#fff"/>
   <path id="svg_10" d="m1329,372l0,-5l6,0a4,4 0 0 0 3,-3l0,-14l-8,0l0,-4l13,0l0,18l-1,3a7,7 0 0 1 -4,4l-3,1l-6,0zm9,-32l0,-1l2,-1l1,0l2,1l0,3l-2,1l-1,0l-2,-1l0,-2zm13,0l4,0l0,6a16,16 0 0 1 0,2l0,1l2,-3l3,-1l5,2l2,6l0,13l-5,0l0,-13l0,-3l-3,-1l-3,1l-1,3l0,13l-4,0l0,-26zm29,26l-3,-1l-3,-1a7,7 0 0 1 -2,-5l4,0l1,2l3,1l3,-1l2,-3c0,-2 -1,-3 -2,-3c0,-1 -1,-2 -3,-2l-3,0l0,-4l4,-4a23,23 0 0 1 3,-2l-11,0l0,-3l15,0l0,4l-5,5a10,10 0 0 1 -2,1l3,0l3,2l2,3l0,6a7,7 0 0 1 -5,4l-4,1zm12,-20l5,0l4,10l1,2l0,2a22,22 0 0 1 1,-4l4,-10l5,0l-10,26l-5,0l3,-8l-8,-18zm22,0l5,0l4,10a10,10 0 0 1 0,3l1,1l0,-1a56,56 0 0 1 1,-3l3,-10l5,0l-9,26l-5,0l3,-8l-8,-18zm22,0l5,0l3,10l1,2a14,14 0 0 1 0,2l1,0a22,22 0 0 1 0,-4l4,-10l5,0l-10,26l-4,0l2,-8l-7,-18zm21,0l5,0l4,10a10,10 0 0 1 1,3l0,0a56,56 0 0 1 1,-3l4,-10l4,0l-9,26l-5,0l3,-8l-8,-18z" fill="#fff"/>
   <path id="svg_11" d="m1276,139l-1,-1l-1,0l0,11l1,0l2,-1l0,-5l-1,-4zm-15,-11l0,30l50,0l0,-30l-50,0zm18,22l-5,1l-3,0l0,-15l3,0c3,0 4,0 5,2l1,5l-1,7zm10,-12l-5,0l0,4l3,0l0,3l-3,0l0,4l5,0l0,2l-7,0l0,-7l0,-8l7,0l0,3l0,-1zm10,12l-2,1l-1,0l-2,-5l-2,-7l-1,-3l3,0l3,10l1,-5l2,-5l3,0l-4,14z" fill="#fff"/>
   <path id="svg_12" d="m1329,162l0,-5l5,0a4,4 0 0 0 4,-3l0,-14l-8,0l0,-4l13,0l0,18a8,8 0 0 1 -2,5l-3,2l-3,1l-6,0zm9,-32l0,-1l2,-1l1,0l2,1l0,3l-2,1l-1,0l-2,-1l0,-2zm13,0l4,0l0,9l2,-3l3,-1l5,2l2,6l0,13l-5,0l0,-13l-1,-3l-2,-1l-3,1l-1,3l0,13l-4,0l0,-26zm29,26l-3,-1l-3,-1a7,7 0 0 1 -3,-5l5,0l1,2l3,1l3,-1l2,-3c0,-2 -1,-3 -2,-3l-3,-2l-3,0l0,-4l4,-4a23,23 0 0 1 3,-2l-11,0l0,-3l15,0l0,4l-5,5a7,7 0 0 1 -1,0l-1,1l3,0l3,2l1,3l1,3l-1,3l-1,3l-3,1l-4,1zm12,-20l5,0l4,10a10,10 0 0 1 1,3l0,1a22,22 0 0 1 1,-4l4,-10l5,0l-10,26l-5,0l3,-8l-8,-18z" fill="#fff"/>
   <path id="svg_13" d="m1299,75l0,-4l-4,2l4,2zm2,3l0,1l-14,9a1,1 0 0 1 -2,0l-14,-9l0,-11l0,-1l14,-9a1,1 0 0 1 2,0l14,9l0,11zm-15,-30a25,25 0 1 0 0,50a25,25 0 0 0 0,-50zm0,22l-5,3l5,3l5,-3l-5,-3zm1,8l0,7l11,-7l-5,-3l-6,3zm-13,0l11,7l0,-7l-6,-3l-5,3zm24,-10l-11,-7l0,7l6,3l5,-3zm-13,0l0,-7l-11,7l5,3l6,-3zm-12,3l0,4l4,-2l-4,-2z" fill="#fff"/>
   <path id="svg_14" d="m1329,92l0,-5l5,0a4,4 0 0 0 4,-3l0,-14l-8,0l0,-4l13,0l0,18a8,8 0 0 1 -2,5l-3,2l-3,1l-6,0zm9,-32l0,-1l2,-1l1,0l2,1l0,3l-2,1l-1,0l-2,-1l0,-2zm13,0l4,0l0,9l2,-3l3,-1l5,2l2,6l0,13l-5,0l0,-13l-1,-3l-2,-1l-3,1l-1,3l0,13l-4,0l0,-26zm29,26l-3,-1l-3,-1a7,7 0 0 1 -3,-5l5,0l1,2l3,1l3,-1l2,-3c0,-2 -1,-3 -2,-3l-3,-2l-3,0l0,-4l4,-4a23,23 0 0 1 3,-2l-11,0l0,-3l15,0l0,4l-5,5a7,7 0 0 1 -1,0l-1,1l3,0l3,2l1,3l1,3l-1,3l-1,3l-3,1l-4,1zm12,-20l5,0l4,10a10,10 0 0 1 1,3l0,1a22,22 0 0 1 1,-4l4,-10l5,0l-10,26l-5,0l3,-8l-8,-18z" fill="#fff"/>
   <g id="svg_15" clip-path="url(#clip1)">
    <path id="svg_16" d="m1311,198l-6,1c2,-1 4,-3 5,-6c-2,2 -5,2 -7,3a10,10 0 0 0 -18,7l1,2c-9,0 -17,-4 -22,-10l-1,5c0,3 2,6 5,8l-5,-1c0,5 3,9 8,10a10,10 0 0 1 -4,0c1,4 5,7 9,7a21,21 0 0 1 -15,5c5,3 10,4 16,4c19,0 29,-15 29,-29l0,-1l5,-5z" fill="#fff"/>
   </g>
   <path id="svg_17" d="m1329,232l0,-5l5,0l3,-1l1,-2l0,-14l-8,0l0,-4l13,0l0,18a8,8 0 0 1 -3,5l-2,2l-4,1l-5,0zm8,-32l1,-1l2,-1l2,1l1,1l-1,2l-2,1l-2,-1l-1,-2zm13,0l5,0l0,6a24,24 0 0 1 0,2l0,1l-1,0l1,0l2,-3l3,-1l5,2l2,6l0,13l-5,0l0,-13l-1,-3l-3,-1l-2,1l-1,3l0,13l-5,0l0,-26zm30,26l-3,-1l-3,-1l-2,-2l-1,-3l5,0l1,2l3,1l3,-1l1,-3l-1,-3l-3,-2l-3,0l0,-4l4,-4a26,26 0 0 1 2,-2l-1,0l-10,0l0,-3l16,0l0,4l-6,5a10,10 0 0 1 -1,1l3,0l3,2l1,3l1,3l-1,3a7,7 0 0 1 -4,4l-4,1zm12,-20l5,0l4,10a10,10 0 0 1 0,3l1,1l0,-1a56,56 0 0 1 1,-3l3,-10l5,0l-9,26l-5,0l3,-8l-8,-18zm22,0l5,0l3,10l1,2a14,14 0 0 1 0,2l1,0a22,22 0 0 1 0,-4l4,-10l5,0l-10,26l-4,0l2,-8l-7,-18z" fill="#fff"/>
   <g id="svg_18" transform="translate(549,-975) scale(1.3410500288009644) ">
    <path id="svg_19" d="m243,894c0,61 -36,106 -94,106c-55,0 -92,-45 -92,-106s38,-86 91,-86s95,25 95,86z" class="bear__fur"/>
    <path id="svg_20" d="m212,958c0,20 -29,39 -63,39c-35,0 -61,-19 -61,-39s26,-33 61,-33s63,13 63,33z" class="bear__muzzle"/>
    <path id="svg_21" d="m181,932c0,7 -19,24 -30,24s-32,-17 -32,-24c0,-8 20,-13 31,-13c12,0 31,5 31,13z" class="bear__nose"/>
    <ellipse id="svg_22" ry="23.100000381469727" rx="23.799999237060547" cy="827.7000122070312" cx="68.30000305175781" class="bear__outer-ear"/>
    <path id="svg_23" d="m85,826a17,16 0 0 0 -17,-14a17,16 0 0 0 -16,16a17,16 0 0 0 16,16a17,16 0 0 0 1,0l3,-4a66,66 0 0 1 11,-12l2,-2z" class="bear__inner-ear"/>
    <ellipse id="svg_24" transform="scale(-1,1) " cx="-231.1999969482422" cy="827.7000122070312" rx="23.799999237060547" ry="23.100000381469727" class="bear__outer-ear"/>
    <path id="svg_25" d="m215,826a17,16 0 0 1 16,-14a17,16 0 0 1 17,16a17,16 0 0 1 -17,16a17,16 0 0 1 -1,0l-2,-4a66,66 0 0 0 -11,-12l-2,-2z" class="bear__inner-ear"/>
    <path id="svg_26" d="m148,815c-14,0 -26,1 -38,4l0,11a199,199 0 0 1 80,1l0,-11c-13,-3 -27,-5 -42,-5z" class="bear__cap-strap"/>
    <path id="svg_27" d="m165,816a16,8 0 0 1 5,5a16,8 0 0 1 -6,6l26,4l0,-11l-25,-4z" class="bear__small-cap-strap"/>
    <path id="svg_28" d="m148,789c-43,0 -76,20 -83,64c12,-11 28,-19 45,-23c0,0 -2,-12 10,-16c15,-4 19,-4 28,-4c10,0 15,0 30,4s12,17 12,17c18,5 32,11 45,22c-8,-46 -43,-64 -87,-64z" class="bear__cap"/>
    <circle id="svg_29" r="11.199999809265137" cy="894.0999755859375" cx="97.19999694824219" class="bear__eye"/>
    <circle id="svg_30" r="11.199999809265137" cx="201.89999389648438" cy="894.0999755859375" class="bear__eye"/>
    <path id="svg_31" fill="none" stroke="#e9afaf" stroke-width="3" stroke-linecap="round" stroke-linejoin="round" d="m97,864a21,21 0 0 1 -7,16a21,21 0 0 1 -16,5m130,-21a21,21 0 0 0 6,16a21,21 0 0 0 16,5" class="bear__eyebrows"/>
    <path id="svg_32" d="m77,855c-6,0 -13,0 -23,2l-14,3l2,15l7,2c3,5 1,10 2,18c3,28 12,34 26,35c8,1 23,3 33,-1s19,-10 25,-18c6,-9 6,-18 10,-26c3,-5 8,-4 10,0c3,8 4,17 10,26c6,8 15,14 24,18c11,4 26,2 34,1c14,-1 23,-7 26,-35c1,-8 -2,-13 2,-18l7,-2l2,-15l-15,-3c-15,-3 -23,-2 -34,-2l-13,0l-25,4c-8,2 -15,7 -23,6c-8,0 -15,-5 -23,-6l-25,-4l-25,0z" class="shades-frame"/>
    <path id="svg_33" fill="#333333" d="m85,860c-10,1 -25,1 -28,13c-3,15 -3,32 6,45c7,11 23,9 35,9c19,-1 35,-16 40,-34c2,-8 4,-14 1,-19c-6,-10 -20,-12 -31,-13l-23,-1z" class="lens"/>
    <path id="svg_34" d="m56,864a4,2 0 0 1 -4,2a4,2 0 0 1 -4,-2a4,2 0 0 1 4,-1a4,2 0 0 1 4,1" class="shades-dot"/>
    <path id="svg_35" fill="#333333" d="m215,860c10,1 24,1 28,13c3,15 3,32 -6,45c-7,11 -23,9 -35,9c-19,-1 -35,-16 -40,-34c-2,-8 -4,-14 -1,-19c6,-10 20,-12 31,-13l23,-1z" class="lens"/>
    <path id="svg_36" d="m244,864a4,2 0 0 0 4,2a4,2 0 0 0 4,-2a4,2 0 0 0 -4,-1a4,2 0 0 0 -4,1" class="shades-dot"/>
    <g id="svg_37" clip-path="url(#spec-left)">
     <use id="svg_38" xlink:href="#code-block" width="100%" height="100%"/>
     <use id="svg_39" y="284" xlink:href="#code-block" width="100%" height="100%"/>
    </g>
    <g id="svg_40" clip-path="url(#spec-right)">
     <use id="svg_41" x="104" y="0" xlink:href="#code-block" width="100%" height="100%"/>
     <use id="svg_42" x="104" y="284" xlink:href="#code-block" width="100%" height="100%"/>
    </g>
    <path id="svg_43" d="m-15.169760465621948,603.9351513385773 l-19,66 l17,0 l18,-65 l-16,-1 zm-12,-1 l-4,0 l-3,1 l-18,59 l6,5 l19,-65 z" class="lens__shine"/>
   </g>
  </g>
  <rect stroke="#df2525" id="svg_44" height="355" width="248" y="37.02103042602539" x="1238.497802734375" stroke-width="1.5" fill="#df2525"/>
  <text stroke="#df2525" transform="matrix(4.986571374114318,0,0,4.986571374114318,-4649.510317747498,-986.9186400276196) " xml:space="preserve" text-anchor="start" font-family="Impact, Charcoal, sans-serif" font-size="24" id="svg_46" y="255.01120713178275" x="1124.3729806262736" stroke-opacity="null" stroke-width="0" fill="#ffffff" class="" letter-spacing="1">stani-ror</text>
 </g>
<style xmlns="http://www.w3.org/1999/xhtml">@import url(http://fonts.googleapis.com/css?family=Arapey);</style></svg>